<svg id="Capa_1" enable-background="new 0 0 512 512" height="512" viewBox="0 0 512 512" width="512" xmlns="http://www.w3.org/2000/svg"><path d="m0 349.797h256v84.979h-256z" fill="#8f4813"/><path d="m256 442.511-180.91 69.489-30.471-79.329 180.91-69.488 30.471 39.222z" fill="#bc5f19"/><path d="m256 349.797h256v84.979h-256z" fill="#71390f"/><path d="m256 442.511 180.91 69.489 30.471-79.329-180.91-69.488-30.471 29.104z" fill="#8f4813"/><path d="m430.772 206.553-24.545-87.493-45.641 47.658-104.586-166.718-104.586 166.718-45.641-47.658-24.545 87.493c-32.002 114.076 51.816 228.876 170.276 230.998 1.494.027 2.993.04 4.495.04s3.001-.013 4.495-.04c118.462-2.122 202.28-116.922 170.278-230.998z" fill="#ff7c48"/><path d="m430.772 206.553-24.545-87.493-45.641 47.658-104.586-166.718v437.591s3.001-.013 4.495-.04c118.461-2.122 202.279-116.922 170.277-230.998z" fill="#ff6426"/><path d="m346.475 317.988-12.706-45.293-23.627 24.671-54.142-86.306-54.142 86.306-23.627-24.671-12.706 45.293c-16.567 59.055 26.824 118.484 88.148 119.583.774.014 1.549.021 2.327.021s1.553-.007 2.327-.021c61.325-1.099 104.715-60.529 88.148-119.583z" fill="#ffda44"/><path d="m346.475 317.988-12.706-45.293-23.627 24.671-54.142-86.306v226.531c.778 0 1.553-.007 2.327-.021 61.325-1.098 104.715-60.528 88.148-119.582z" fill="#eebf00"/></svg>